<?xml version="1.0" encoding="utf-8"?>
<!-- Generator: Adobe Illustrator 23.1.0, SVG Export Plug-In . SVG Version: 6.00 Build 0)  -->
<svg version="1.1" id="Layer_1" xmlns="http://www.w3.org/2000/svg" xmlns:xlink="http://www.w3.org/1999/xlink" x="0px" y="0px"
	 viewBox="0 0 186.11 143.75" style="enable-background:new 0 0 186.11 143.75;" xml:space="preserve">
<style type="text/css">
	.st0{fill:#001225;}
</style>
<g>
	<path class="st0" d="M9.36,65.04c1.25-0.11,2.21,0.83,2.21,1.53v0.42c0,0.81-1.16,1.31-3.48,1.5c-2.67,0.84-4.01,2.52-4.01,5.04
		c0,0.76,0.34,1.64,1.03,2.66c1.16,1.35,3.04,2.36,5.64,3.03L11,79.28c0,0,1.92,0.24,2.74,0.24c1.65-0.07,4.48-0.47,4.48-0.47
		c2.48-0.51,4.45-0.99,5.91-1.45c0,0,10.92-3.27,17.24-5.75c11.07-3.67,18.31-5.36,18.91-5.51s2.37-0.53,3.01-0.63
		s3.37-0.32,5.46-0.32c2.04,0.23,3.06,0.91,3.06,2.03c0,0.83-0.47,1.4-1.4,1.71c-0.47,0-1.67-0.04-3.59-0.11
		c-2.64,0-7.12,0.91-13.45,2.72c-1,0.21-5.52,1.83-8.7,2.85c-9.18,3.38-18.12,6.19-19.27,6.43c-0.18,0.04-0.79,0.23-1.53,0.4
		c-0.74,0.17-2.99,0.67-6.96,1.32c0,0-2.65,0.21-2.82,0.21c-4.47,0-8.21-1.36-11.23-4.09c-1.62-1.88-2.57-3.8-2.85-5.75L0.05,73
		L0,72.9c0.25-1.92,1.21-3.7,2.9-5.35C5.13,65.89,8.11,65.15,9.36,65.04z"/>
	<path class="st0" d="M89.44,23.17h0.34c1.05,0.47,1.58,1.4,1.58,2.77v0.11c0,3.74-2.3,11.14-6.91,22.2
		c-1.79,4.36-5.23,10.39-10.31,18.09c-0.97,0.98-1.45,1.9-1.45,2.74v0.32c0,1.02,0.69,2.6,2.06,4.75c1.48,1.39,3,2.08,4.56,2.08
		h1.34c1.85-0.11,4.54-1.12,8.07-3.06c3.11-2.79,5.29-4.86,6.54-6.2c0.88-1.07,1.64-1.61,2.29-1.61h0.37
		c0.83,0.39,1.24,0.94,1.24,1.66c-0.23,1.25-2.85,3.94-7.86,8.07c-3.92,2.83-7.85,4.25-11.79,4.25c-5.27,0-8.79-2.91-10.55-8.73
		c-0.23-1.04-0.38-1.92-0.45-2.66c0-4.1,0.88-8.26,2.64-12.5c0-0.67,0.58-2.21,1.74-4.64c2.43-7.12,5.04-13.06,7.83-17.82
		c2.07-3.52,3.18-5.27,3.32-5.27c0.4-0.51,0.92-1.36,1.56-2.56C86.76,23.83,88.03,23.17,89.44,23.17z M72.51,62.56
		c0.05,0.09,0.08,0.27,0.08,0.55l-0.08,0.13c0.02,0-0.07,0-0.26,0h0.03c0.56-0.6,2.08-3.06,4.56-7.38
		c2.46-4.22,5.26-10.5,8.38-18.85c1.39-4.55,2.08-7.32,2.08-8.31c-0.07-0.62-0.11-0.79-0.11-0.53h0.55c-0.54,0-2.39,3.05-5.54,9.15
		c-2.51,4.76-5.27,11.48-8.28,20.14C73.37,59.21,72.9,60.91,72.51,62.56z"/>
	<path class="st0" d="M106.47,59.87c2.9,0,4.86,1.29,5.88,3.88c1.93,3.67,3.58,6.6,4.93,8.78l0.34,0.21c0.09,0,0.97-0.85,2.64-2.56
		c2.86-2.64,5.92-4.38,9.15-5.22c0.67-0.16,1.34-0.27,2-0.34c1.11,0.26,1.66,0.87,1.66,1.82c0,0.88-1.74,1.72-5.22,2.53
		c-1.62,0.49-3.88,2.15-6.78,4.98c-0.93,1.05-1.4,1.71-1.4,1.98v0.32c0,0.42,0.67,1.73,2,3.93c0,0.39,1.46,3.52,4.38,9.39
		c0.84,1.88,1.49,4.03,1.92,6.46c1,3.01,1.5,6.2,1.5,9.57c-0.28,6.12-0.64,9.92-1.08,11.42c-0.69,3.52-1.41,5.99-2.16,7.44
		c-1.09,1.88-2.65,4.09-4.67,6.62c-2.11,1.23-4.19,1.85-6.25,1.85c-3.29,0-6.19-1.34-8.7-4.01c-0.83-0.88-2.28-3.55-4.35-8.02
		c-0.88-2.46-1.32-5.14-1.32-8.04c0-1.55,0.44-4.28,1.32-8.2c0.21-0.28,0.44-1.5,0.69-3.67c2.57-7.52,5.38-13.98,8.44-19.38
		c2.32-3.59,3.48-5.51,3.48-5.77v-0.13c-0.21-1-1.3-2.81-3.27-5.43h0.47l-1.32,3.51c-1.72,3.59-3.05,5.55-3.98,5.91
		c-1.28,0.9-2.69,1.34-4.22,1.34h-0.53c-2.74,0-5.01-1.48-6.8-4.43c-0.33-0.6-0.5-1.34-0.5-2.24v-0.53c0-4.66,2.21-8.82,6.62-12.47
		C103.18,60.37,104.89,59.87,106.47,59.87z M98.38,72.98v0.21c0,2.11,0.7,3.58,2.11,4.4c0.44,0.28,0.99,0.42,1.66,0.42h0.32
		c2.16,0,3.86-1.96,5.09-5.88c0.32-0.4,0.65-1.82,1-4.25c-0.28-3.2-0.81-4.8-1.58-4.8c0-0.14-0.13-0.21-0.4-0.21h-0.63
		c-1.85,0-3.74,1.44-5.67,4.32C99.01,69.4,98.38,71.33,98.38,72.98z M104.6,113.06c0,4.75,1.75,9.53,5.25,14.34
		c1.51,1.74,3.38,2.61,5.59,2.61c3.9,0,6.79-3.15,8.65-9.44c1.25-3.81,1.87-8.11,1.87-12.89c0-8.53-2.79-17.67-8.36-27.42
		c-0.32-0.62-0.53-0.92-0.63-0.92c-0.37,0.07-1.74,2.41-4.11,7.01c-2.32,4.82-4.2,9.29-5.64,13.42
		C105.47,105.6,104.6,110.03,104.6,113.06z"/>
	<path class="st0" d="M183.11,50.46c1.35,0,2.33,1.72,2.93,5.17c0.05,0.51,0.08,1.01,0.08,1.5c0,3.5-1.58,6.64-4.74,9.41
		c-1.11,0.93-2.63,1.77-4.57,2.5c-1.39,0.51-2.96,0.9-4.72,1.16l-0.48,0.03h-1.72c0.27,0-0.34,0-0.34,0h-0.27c0.27,0-0.34,0-0.34,0
		h0.04c0.27,0-0.34,0-0.34,0l-1.56-0.02c0,0-0.95-0.09-0.92-0.09c-1.8-0.07-2.99-0.18-3.58-0.32c0,0-6.5-1.3-11.91-2.64
		c-0.71-0.11-1.63-0.21-1.63-0.21s-1.31-0.17-1.56-0.19c-0.6-0.09-2.46-0.23-2.44-0.23c-1.73-0.07-2.94-0.11-2.94-0.11h-1.8
		c-2.79,0-4.47,0.2-6.1,0.57c-1.79,0.43-3.72,1.3-4.36,1.3c-0.71-0.39-0.19-0.4-0.19-1.16l-1.78-1.18c0-1.05,6.02-2.08,6.75-2.3
		c1.19-0.37,4.87-0.81,4.87-0.81l1.5-0.06c-0.27,0,0.34,0,0.34,0h2.56c0.55,0,2.93,0.21,2.93,0.21c0.69,0.08,2.88,0.4,3.56,0.53
		c0,0,7.34,1.5,9.79,2.19l1.22,0.21l2.83,0.4c0,0,1.65,0.26,2.37,0.31l0.75,0.05h3.52l0.6-0.05l0.71-0.06l1.05-0.11
		c2.45-0.54,4.13-1.12,5.05-1.74c3.29-2.14,4.93-4.72,4.93-7.73v-0.32c0-1.02-0.38-2.47-1.15-4.35v-0.4
		C182.26,50.96,182.62,50.46,183.11,50.46z"/>
	<path class="st0" d="M93.88,0c2.59,0,5.14,0.14,7.66,0.41C65.45,4.23,37.33,34.77,37.33,71.87c0,37.11,28.12,67.64,64.22,71.46
		c-2.52,0.27-5.07,0.41-7.66,0.41c-39.69,0-71.87-32.18-71.87-71.87C22.01,32.18,54.19,0,93.88,0z"/>
</g>
</svg>
