<?xml version="1.0" encoding="utf-8"?>
<!-- Generator: Adobe Illustrator 23.1.0, SVG Export Plug-In . SVG Version: 6.00 Build 0)  -->
<svg version="1.1" id="Layer_1" xmlns="http://www.w3.org/2000/svg" xmlns:xlink="http://www.w3.org/1999/xlink" x="0px" y="0px"
	 viewBox="0 0 692.5 279" style="enable-background:new 0 0 692.5 279;" xml:space="preserve">
<style type="text/css">
	.st0{fill:#FFFFFF;}
</style>
<g>
	<circle class="st0" cx="345.5" cy="61" r="61"/>
	<ellipse class="st0" cx="213.5" cy="87" rx="55" ry="60.7"/>
	<path class="st0" d="M157.5,144c0-33.52-27.04-60.72-60.5-60.99c10.82,15.7,17.5,37.23,17.5,60.99s-6.68,45.29-17.5,60.99
		C130.46,204.72,157.5,177.52,157.5,144z"/>
	<path class="st0" d="M18.5,143c-2.2,0-4.36,0.12-6.5,0.35c30.63,3.25,54.5,29.16,54.5,60.65c0,31.49-23.87,57.41-54.5,60.65
		c2.14,0.23,4.3,0.35,6.5,0.35c33.69,0,61-27.31,61-61C79.5,170.31,52.19,143,18.5,143z"/>
	<ellipse class="st0" cx="478" cy="87" rx="55" ry="60.7"/>
	<path class="st0" d="M534,144c0-33.52,27.04-60.72,60.5-60.99C583.68,98.71,577,120.24,577,144s6.68,45.29,17.5,60.99
		C561.04,204.72,534,177.52,534,144z"/>
	<path class="st0" d="M673,143c2.2,0,4.36,0.12,6.5,0.35C648.87,146.59,625,172.51,625,204c0,31.49,23.87,57.41,54.5,60.65
		c-2.14,0.23-4.3,0.35-6.5,0.35c-33.69,0-61-27.31-61-61C612,170.31,639.31,143,673,143z"/>
</g>
<g>
	<path class="st0" d="M52.55,208h1.15c4.23,0,9.23,1.31,14.99,3.92c16.45,6.09,31.75,9.14,45.91,9.14h3.66
		c12.57,0,24.91-2.38,37.03-7.15c2.96-1.43,4.58-2.14,4.86-2.14h0.31c0.92,0.3,1.38,0.83,1.38,1.59v0.31c0,0.89-1.28,1.82-3.84,2.79
		c-2.92,1.55-7.94,3.23-15.04,5.04c-8.55,2.11-17.41,3.16-26.58,3.16c-17.77,0-36.16-3.98-55.15-11.93
		c-2.89-0.82-5.57-1.23-8.04-1.23h-0.1c-6.46,0-11.37,2.04-14.73,6.11c-0.96,1.58-1.44,3.09-1.44,4.52c0,3.73,1.52,6.89,4.57,9.5
		c1.06,0.78,2.49,1.54,4.28,2.27c0.37,0.47,0.55,1,0.55,1.59c-0.35,0.99-0.98,1.49-1.91,1.49c-4-1.24-7.05-3.68-9.14-7.34
		c-1.24-2.59-1.85-5.14-1.85-7.62c0-4.91,2.94-8.83,8.83-11.78C45.61,208.75,49.05,208,52.55,208z"/>
	<path class="st0" d="M178.86,170.32h0.34c1.04,0.47,1.57,1.38,1.57,2.74v0.1c0,3.71-2.28,11.04-6.84,21.99
		c-1.78,4.32-5.18,10.29-10.21,17.91c-0.96,0.97-1.44,1.88-1.44,2.72v0.31c0,1.01,0.68,2.58,2.04,4.7c1.46,1.38,2.97,2.06,4.52,2.06
		h1.33c1.83-0.1,4.49-1.11,7.99-3.03c3.08-2.77,5.24-4.81,6.48-6.14c0.87-1.06,1.63-1.59,2.27-1.59h0.37
		c0.82,0.38,1.23,0.93,1.23,1.65c-0.23,1.24-2.82,3.9-7.78,7.99c-3.88,2.8-7.77,4.2-11.67,4.2c-5.22,0-8.7-2.88-10.45-8.64
		c-0.23-1.03-0.37-1.91-0.44-2.64c0-4.06,0.87-8.18,2.61-12.38c0-0.66,0.57-2.19,1.72-4.6c2.4-7.05,4.99-12.93,7.76-17.65
		c2.05-3.48,3.15-5.22,3.29-5.22c0.4-0.5,0.91-1.35,1.54-2.53C176.2,170.97,177.46,170.32,178.86,170.32z M162.09,209.33
		c0.05,0.09,0.08,0.27,0.08,0.55l-0.08,0.13c0.02,0-0.07,0-0.26,0h0.03c0.56-0.59,2.06-3.03,4.52-7.31
		c2.44-4.18,5.21-10.4,8.3-18.67c1.38-4.51,2.06-7.25,2.06-8.23c-0.07-0.61-0.1-0.78-0.1-0.52h0.55c-0.54,0-2.37,3.02-5.48,9.06
		c-2.49,4.72-5.22,11.37-8.2,19.95C162.94,206.02,162.47,207.7,162.09,209.33z"/>
	<path class="st0" d="M187.37,211h0.18c1.1,0.23,1.65,0.79,1.65,1.7v0.73c-0.89,2.68-1.73,4.39-2.53,5.12
		c-1.1,1.97-1.65,3.74-1.65,5.33c0,0.75,0.55,1.12,1.65,1.12c3.29,0,7.81-2.59,13.55-7.78c0.17-0.44,0.71-0.9,1.62-1.38
		c1.32-1.25,2.75-2.76,4.28-4.52h1.07c1.03,0.14,1.54,0.67,1.54,1.59v0.21c0,0.57-0.85,1.73-2.56,3.47c-2.61,3.19-3.92,6-3.92,8.43
		c0,0.75,0.55,1.12,1.65,1.12c3.29,0,7.81-2.59,13.55-7.78c0.17-0.44,0.71-0.9,1.62-1.38c1.32-1.25,2.75-2.76,4.28-4.52h1.07
		c1.03,0.14,1.54,0.67,1.54,1.59v0.21c0,0.57-0.85,1.72-2.56,3.45c-0.85,1.1-1.99,2.14-3.42,3.13c-6.41,5.87-11.8,8.8-16.19,8.8
		c-3.36,0-5.04-1.58-5.04-4.73c0-0.82,0.06-1.45,0.18-1.91c-4.53,3.66-8.62,5.48-12.27,5.48c-3.43,0-5.14-1.58-5.14-4.73
		c0-1.36,0.47-3.36,1.41-6.01c2.12-4.37,3.22-6.55,3.29-6.55C186.22,211.11,186.6,211.04,187.37,211z"/>
	<path class="st0" d="M265.58,211.66h0.6c0.73,0.44,1.1,0.97,1.1,1.59v0.18c-0.84,3.24-3.06,6.91-6.66,11.02
		c-2.8,2.75-5.03,4.27-6.68,4.57c-2.51,0.85-4.51,1.28-6.01,1.28c-4.37,0-7.33-2.1-8.88-6.29c-1.53-4.72-2.44-7.3-2.72-7.76
		c-0.33-0.35-0.69-0.54-1.07-0.57h-0.5c-1.55,0-3.16,1.11-4.83,3.32c-1.01,1.15-3.66,4.77-7.94,10.86
		c-0.64,0.64-1.19,0.97-1.65,0.97h-0.21c-0.92,0-1.5-0.61-1.72-1.83c1.5-6.51,2.99-11.86,4.49-16.06c0.59-0.78,1.21-1.18,1.85-1.18
		c0.71,0.3,1.17,0.68,1.36,1.15v0.86c-0.57,1.65-1.24,4.12-1.98,7.39v0.71c-0.03-0.26-0.18-0.39-0.44-0.39h-0.13
		c0.42-0.35,1.78-2.05,4.1-5.09c2.18-2.59,4.47-3.89,6.89-3.89h0.42c2.75,0,4.6,1.62,5.54,4.86c1.64,5.4,2.85,8.18,3.66,8.36
		c0.97,0.94,2.3,1.41,3.97,1.41h0.1c3.29,0,6.54-1.64,9.74-4.91c3.08-3.64,4.85-6.49,5.3-8.56
		C263.99,212.32,264.76,211.66,265.58,211.66z"/>
	<path class="st0" d="M275.84,204.4l1.41,0.05c2.05,0.02,3.49,0.92,4.31,2.72c0.21,0.47,0.67,2.44,1.38,5.9
		c1.31,3.05,3.6,4.57,6.89,4.57c3.15,0,6.63-1.83,10.45-5.48c0.73-0.17,1.27-0.26,1.62-0.26c0.82,0.38,1.23,0.88,1.23,1.49
		c0,0.89-0.84,1.93-2.53,3.13c-2.25,1.97-5.14,3.4-8.67,4.31c-0.77,0.07-1.36,0.1-1.78,0.1h-0.42c-4.67,0-8.03-2.12-10.11-6.35
		l-0.21-0.13c0.05,0-0.5,1.05-1.67,3.16c-2.63,3.53-5.49,5.3-8.59,5.3h-0.1c-2.37,0-4.17-1.32-5.41-3.97
		c-0.24-0.75-0.37-1.42-0.37-2.01c0.1-3.05,1.6-6.1,4.49-9.17C270.08,205.57,272.77,204.45,275.84,204.4z M266.67,216.41
		c0,1.76,0.76,2.86,2.27,3.32h0.52c2.47,0,4.99-2.65,7.55-7.96c0.73-1.78,1.1-2.98,1.1-3.6v-0.63c0,0.07-0.54,0.08-1.62,0.03
		c-3.66-0.07-6.52,1.75-8.59,5.46C267.08,214.2,266.67,215.33,266.67,216.41z"/>
	<path class="st0" d="M314.75,205.1c1.03,0.17,1.54,0.75,1.54,1.72c-0.31,0.7-1.24,2.18-2.79,4.47c-2.32,5.29-3.47,9.25-3.47,11.88
		c0.17,2.99,1.07,4.87,2.69,5.61c0.28,0.16,0.52,0.24,0.73,0.24h0.42c1.74,0,4.03-1.13,6.87-3.39c2.07-2.05,4.53-5.34,7.39-9.84
		c1.06-2.38,2.15-3.58,3.26-3.58c1.08,0.3,1.62,0.86,1.62,1.7v0.31c-0.3,0.97-2.07,3.85-5.33,8.62c-1.65,2.73-4.4,5.41-8.25,8.02
		c-1.34,0.75-3.21,1.27-5.61,1.57h-0.16c-2.65,0-4.82-1.65-6.53-4.96c-0.4-0.87-0.6-2.18-0.6-3.94c0-3.31,0.85-6.83,2.56-10.58
		l0.68-2.17v-0.52c0,0.3,0.15,0.44,0.44,0.44h-0.21c-0.78,0-2.27,0.47-4.47,1.41c-0.92,0.35-2.04,1.09-3.34,2.22
		c-1.34-0.16-2.14-0.77-2.4-1.83l0.97-1.57c0.37-0.42,1.36-0.96,2.98-1.62c2.3-0.71,5.66-2.12,10.08-4.2H314.75z"/>
	<path class="st0" d="M353.58,206.67c2.87,0,4.81,1.28,5.82,3.84c1.91,3.64,3.54,6.54,4.88,8.7l0.34,0.21
		c0.09,0,0.96-0.84,2.61-2.53c2.84-2.61,5.86-4.33,9.06-5.17c0.66-0.16,1.32-0.27,1.98-0.34c1.1,0.26,1.65,0.86,1.65,1.8
		c0,0.87-1.72,1.71-5.17,2.51c-1.6,0.49-3.84,2.13-6.71,4.94c-0.92,1.04-1.38,1.7-1.38,1.96v0.31c0,0.42,0.66,1.71,1.98,3.89
		c0,0.38,1.44,3.48,4.33,9.3c0.84,1.86,1.47,4,1.91,6.4c0.99,2.98,1.49,6.14,1.49,9.48c-0.28,6.06-0.64,9.83-1.07,11.31
		c-0.68,3.48-1.39,5.94-2.14,7.36c-1.08,1.86-2.62,4.05-4.62,6.55c-2.09,1.22-4.15,1.83-6.19,1.83c-3.26,0-6.13-1.32-8.62-3.97
		c-0.82-0.87-2.25-3.52-4.31-7.94c-0.87-2.44-1.31-5.09-1.31-7.96c0-1.53,0.44-4.24,1.31-8.12c0.21-0.28,0.44-1.49,0.68-3.63
		c2.54-7.45,5.33-13.85,8.36-19.19c2.3-3.55,3.45-5.46,3.45-5.72v-0.13c-0.21-0.99-1.29-2.79-3.24-5.38h0.47l-1.31,3.47
		c-1.71,3.55-3.02,5.5-3.94,5.85c-1.27,0.89-2.66,1.33-4.18,1.33h-0.52c-2.72,0-4.96-1.46-6.74-4.39c-0.33-0.59-0.5-1.33-0.5-2.22
		v-0.52c0-4.61,2.18-8.73,6.55-12.35C350.32,207.16,352.01,206.67,353.58,206.67z M345.56,219.65v0.21c0,2.09,0.7,3.54,2.09,4.36
		c0.44,0.28,0.98,0.42,1.65,0.42h0.31c2.14,0,3.82-1.94,5.04-5.82c0.31-0.4,0.64-1.8,0.99-4.2c-0.28-3.17-0.8-4.75-1.57-4.75
		c0-0.14-0.13-0.21-0.39-0.21h-0.63c-1.83,0-3.7,1.43-5.61,4.28C346.19,216.1,345.56,218.01,345.56,219.65z M351.72,259.34
		c0,4.7,1.73,9.44,5.2,14.21c1.5,1.72,3.34,2.59,5.54,2.59c3.86,0,6.72-3.12,8.56-9.35c1.24-3.78,1.85-8.03,1.85-12.77
		c0-8.44-2.76-17.5-8.28-27.16c-0.31-0.61-0.52-0.91-0.63-0.91c-0.37,0.07-1.72,2.38-4.07,6.95c-2.3,4.77-4.16,9.2-5.59,13.29
		C352.58,251.96,351.72,256.34,351.72,259.34z"/>
	<path class="st0" d="M391.28,205.1c1.03,0.17,1.54,0.75,1.54,1.72c-0.31,0.7-1.24,2.18-2.79,4.47c-2.32,5.29-3.47,9.25-3.47,11.88
		c0.17,2.99,1.07,4.87,2.69,5.61c0.28,0.16,0.52,0.24,0.73,0.24h0.42c1.74,0,4.03-1.13,6.87-3.39c2.07-2.05,4.53-5.34,7.39-9.84
		c1.06-2.38,2.15-3.58,3.26-3.58c1.08,0.3,1.62,0.86,1.62,1.7v0.31c-0.3,0.97-2.07,3.85-5.33,8.62c-1.65,2.73-4.4,5.41-8.25,8.02
		c-1.34,0.75-3.21,1.27-5.61,1.57h-0.16c-2.65,0-4.82-1.65-6.53-4.96c-0.4-0.87-0.6-2.18-0.6-3.94c0-3.31,0.85-6.83,2.56-10.58
		l0.68-2.17v-0.52c0,0.3,0.15,0.44,0.44,0.44h-0.21c-0.78,0-2.27,0.47-4.47,1.41c-0.92,0.35-2.04,1.09-3.34,2.22
		c-1.34-0.16-2.14-0.77-2.4-1.83l0.97-1.57c0.37-0.42,1.36-0.96,2.98-1.62c2.3-0.71,5.66-2.12,10.08-4.2H391.28z"/>
	<path class="st0" d="M412.43,211.13c2.8,0,4.64,1.04,5.51,3.11c0.31,0.78,0.47,1.57,0.47,2.35c0,0.97-0.14,2.05-0.42,3.21
		c0,0.21,0.17,0.31,0.5,0.31h1.57c5.45,0,11.45-2.51,18.02-7.52c0.89-0.56,1.64-0.84,2.25-0.84h0.37c0.68,0.35,1.02,0.85,1.02,1.51
		c-0.09,0.87-1.61,2.26-4.57,4.18c-5.99,3.97-12.36,5.95-19.11,5.95c-0.47-0.07-0.84-0.1-1.1-0.1c-0.35,0-0.94,0.64-1.78,1.93
		c-2.23,2.68-4.7,4.02-7.42,4.02h-0.94c-2.37,0-4-1.35-4.91-4.05c-0.09-0.5-0.13-1.04-0.13-1.62v-0.52c0-4.39,2.28-8.1,6.84-11.15
		C410.11,211.39,411.39,211.13,412.43,211.13z M404.94,223.12c0,1.51,0.57,2.52,1.72,3c0.19,0.1,0.48,0.16,0.86,0.16
		c1.74,0,3.49-1.23,5.25-3.68l0.05-0.31c0-0.05-0.79-0.47-2.38-1.25c-1.48-0.92-2.5-2.32-3.06-4.2l0.18,0.1h-0.13
		c-0.5,0.23-1.27,1.69-2.3,4.39C405.15,221.37,405.08,221.97,404.94,223.12z M411,216.49c0,0.84,0.72,1.65,2.17,2.45
		c0.52,0.3,0.91,0.44,1.15,0.44h0.1c0.05,0,0.22-0.88,0.5-2.64c0-1.55-0.61-2.32-1.83-2.32C411.69,214.56,411,215.25,411,216.49z"/>
	<path class="st0" d="M498.92,211.81c1.08,0.24,1.62,0.81,1.62,1.7c0,1.08-4.06,3.44-12.19,7.08c-5.48,2.12-10.03,3.19-13.63,3.19
		c-6.42,0-10.29-0.84-11.59-2.53c-0.24-0.12-0.35-0.18-0.31-0.18c-0.05,0-0.4,1.11-1.04,3.34c-3.81,8.48-6.32,13-7.52,13.55
		c-1.32,1.62-2.75,2.43-4.28,2.43h-0.42c-2.19,0-3.42-2.22-3.68-6.66c-0.47-5.36-0.98-8.9-1.54-10.6c-1.44-3.71-2.86-5.92-4.26-6.63
		c-0.85-0.44-1.46-0.95-1.83-1.54v-0.65c0.35-0.68,0.84-1.02,1.49-1.02h0.68c1.88,0.3,3.75,1.79,5.61,4.49
		c1.6,3.08,2.4,5.24,2.4,6.48c0.19,0.42,0.61,2.91,1.25,7.47h-0.16c0.35,3.52,0.57,5.27,0.65,5.27h0.13
		c0.97-0.23,2.41-2.3,4.31-6.21c2.07-3.9,3.73-7.88,4.96-11.93c0.89-2.45,1.79-3.68,2.72-3.68h0.42c1.04,0,1.97,1.15,2.77,3.45
		c0.8,0.91,1.65,1.36,2.56,1.36c1.6,0.56,3.41,0.84,5.43,0.84h0.52c3.6,0,8.38-1.3,14.34-3.89c6.11-3.32,9.29-4.99,9.53-4.99
		C498.23,211.85,498.59,211.81,498.92,211.81z"/>
	<path class="st0" d="M509.41,203.46h0.47c2.56,0.35,3.84,1.31,3.84,2.9c-0.38,2.23-2.4,4.53-6.06,6.89
		c-0.85,0.44-3.55,1.35-8.09,2.74c-0.1,0.07-0.16,0.15-0.16,0.24v0.1c0.73,2.42,1.87,4.07,3.42,4.96c1.57,0.85,3.41,1.28,5.54,1.28
		h0.94c6.89,0,13.27-2.94,19.11-8.83c1.07-1.05,3.53-2.32,4.33-2.32l-0.68,0.59c0.75,0,0.28-0.11,0.68,0.92
		c-0.49,1.93-3.46,4.89-8.9,8.88c-5.55,2.49-9.84,3.73-12.87,3.73c-0.33,0-1.26,0.07-2.79,0.21c-1.51,0-3.86-0.58-7.02-1.75
		c-1.9-1.51-3.38-3.16-4.44-4.94c-0.38,0-0.72-1.14-1.02-3.42c0-1.27,0.99-3.41,2.98-6.42c2.99-2.82,5.39-4.42,7.18-4.8
		C507.15,203.78,508.34,203.46,509.41,203.46z M500.46,212.49c0-0.03-0.11-0.05-0.34-0.05h0.1c1.01,0,2.88-0.64,5.61-1.91
		c2.65-1.98,3.97-3.29,3.97-3.92c0-0.12-0.1-0.18-0.29-0.18h-0.24c-3.43,0.85-6.01,2.34-7.73,4.47
		C500.82,211.75,500.46,212.28,500.46,212.49z"/>
	<path class="st0" d="M641.44,181.65h0.94c4.21,0,7.65,1.51,10.31,4.52c1.91,2.54,2.87,5.47,2.87,8.77v1.36
		c0,3.73-1.89,7.17-5.67,10.34c-2.4,1.79-4.62,3.07-6.66,3.84c-8.11,3.38-18.57,5.07-31.36,5.07c-8.76,0-18.61-0.94-29.56-2.82
		c-5.41-0.91-11.44-1.36-18.07-1.36c-11.84,0-30.88,2.5-32.99,4.06c-2.54,1.88-3.28,0.83-3.28,0l0.58-1.28
		c1.15-1.38,1.5-1.94,4.64-2.93c10.11-2.3,20.46-3.45,31.05-3.45c7.96,0,16.94,0.91,26.95,2.72c7.1,0.97,13.86,1.46,20.26,1.46h0.94
		c16.03,0,27.78-2.67,35.23-8.02c2.96-2.47,4.44-5.19,4.44-8.15c0-4.84-1.71-8.05-5.14-9.64c-1.78-0.66-3.53-0.99-5.27-0.99
		c-0.31,0-1.77,0.14-4.36,0.42c-0.89,0-1.39-0.66-1.51-1.98C635.77,182.3,637.66,181.65,641.44,181.65z"/>
</g>
</svg>
