<svg version="1.1" id="Layer_1" xmlns="http://www.w3.org/2000/svg" x="0" y="0" viewBox="0 0 186.11 143.75" xml:space="preserve"><style>.st0{fill:#fff}</style><path class="st0" d="M9.36 65.04c1.25-.11 2.21.83 2.21 1.53v.42c0 .81-1.16 1.31-3.48 1.5-2.67.84-4.01 2.52-4.01 5.04 0 .76.34 1.64 1.03 2.66 1.16 1.35 3.04 2.36 5.64 3.03l.25.06s1.92.24 2.74.24c1.65-.07 4.48-.47 4.48-.47 2.48-.51 4.45-.99 5.91-1.45 0 0 10.92-3.27 17.24-5.75 11.07-3.67 18.31-5.36 18.91-5.51s2.37-.53 3.01-.63 3.37-.32 5.46-.32c2.04.23 3.06.91 3.06 2.03 0 .83-.47 1.4-1.4 1.71-.47 0-1.67-.04-3.59-.11-2.64 0-7.12.91-13.45 2.72-1 .21-5.52 1.83-8.7 2.85-9.18 3.38-18.12 6.19-19.27 6.43-.18.04-.79.23-1.53.4s-2.99.67-6.96 1.32c0 0-2.65.21-2.82.21-4.47 0-8.21-1.36-11.23-4.09-1.62-1.88-2.57-3.8-2.85-5.75L.05 73 0 72.9c.25-1.92 1.21-3.7 2.9-5.35 2.23-1.66 5.21-2.4 6.46-2.51z"/><path class="st0" d="M89.44 23.17h.34c1.05.47 1.58 1.4 1.58 2.77v.11c0 3.74-2.3 11.14-6.91 22.2-1.79 4.36-5.23 10.39-10.31 18.09-.97.98-1.45 1.9-1.45 2.74v.32c0 1.02.69 2.6 2.06 4.75 1.48 1.39 3 2.08 4.56 2.08h1.34c1.85-.11 4.54-1.12 8.07-3.06 3.11-2.79 5.29-4.86 6.54-6.2.88-1.07 1.64-1.61 2.29-1.61h.37c.83.39 1.24.94 1.24 1.66-.23 1.25-2.85 3.94-7.86 8.07-3.92 2.83-7.85 4.25-11.79 4.25-5.27 0-8.79-2.91-10.55-8.73-.23-1.04-.38-1.92-.45-2.66 0-4.1.88-8.26 2.64-12.5 0-.67.58-2.21 1.74-4.64 2.43-7.12 5.04-13.06 7.83-17.82 2.07-3.52 3.18-5.27 3.32-5.27.4-.51.92-1.36 1.56-2.56 1.16-1.33 2.43-1.99 3.84-1.99zM72.51 62.56c.05.09.08.27.08.55l-.08.13h-.26.03c.56-.6 2.08-3.06 4.56-7.38 2.46-4.22 5.26-10.5 8.38-18.85 1.39-4.55 2.08-7.32 2.08-8.31-.07-.62-.11-.79-.11-.53h.55c-.54 0-2.39 3.05-5.54 9.15-2.51 4.76-5.27 11.48-8.28 20.14-.55 1.75-1.02 3.45-1.41 5.1z"/><path class="st0" d="M106.47 59.87c2.9 0 4.86 1.29 5.88 3.88 1.93 3.67 3.58 6.6 4.93 8.78l.34.21c.09 0 .97-.85 2.64-2.56 2.86-2.64 5.92-4.38 9.15-5.22.67-.16 1.34-.27 2-.34 1.11.26 1.66.87 1.66 1.82 0 .88-1.74 1.72-5.22 2.53-1.62.49-3.88 2.15-6.78 4.98-.93 1.05-1.4 1.71-1.4 1.98v.32c0 .42.67 1.73 2 3.93 0 .39 1.46 3.52 4.38 9.39.84 1.88 1.49 4.03 1.92 6.46 1 3.01 1.5 6.2 1.5 9.57-.28 6.12-.64 9.92-1.08 11.42-.69 3.52-1.41 5.99-2.16 7.44-1.09 1.88-2.65 4.09-4.67 6.62-2.11 1.23-4.19 1.85-6.25 1.85-3.29 0-6.19-1.34-8.7-4.01-.83-.88-2.28-3.55-4.35-8.02-.88-2.46-1.32-5.14-1.32-8.04 0-1.55.44-4.28 1.32-8.2.21-.28.44-1.5.69-3.67 2.57-7.52 5.38-13.98 8.44-19.38 2.32-3.59 3.48-5.51 3.48-5.77v-.13c-.21-1-1.3-2.81-3.27-5.43h.47l-1.32 3.51c-1.72 3.59-3.05 5.55-3.98 5.91-1.28.9-2.69 1.34-4.22 1.34h-.53c-2.74 0-5.01-1.48-6.8-4.43-.33-.6-.5-1.34-.5-2.24v-.53c0-4.66 2.21-8.82 6.62-12.47 1.84-1 3.55-1.5 5.13-1.5zm-8.09 13.11v.21c0 2.11.7 3.58 2.11 4.4.44.28.99.42 1.66.42h.32c2.16 0 3.86-1.96 5.09-5.88.32-.4.65-1.82 1-4.25-.28-3.2-.81-4.8-1.58-4.8 0-.14-.13-.21-.4-.21h-.63c-1.85 0-3.74 1.44-5.67 4.32-1.27 2.21-1.9 4.14-1.9 5.79zm6.22 40.08c0 4.75 1.75 9.53 5.25 14.34 1.51 1.74 3.38 2.61 5.59 2.61 3.9 0 6.79-3.15 8.65-9.44 1.25-3.81 1.87-8.11 1.87-12.89 0-8.53-2.79-17.67-8.36-27.42-.32-.62-.53-.92-.63-.92-.37.07-1.74 2.41-4.11 7.01-2.32 4.82-4.2 9.29-5.64 13.42-1.75 5.83-2.62 10.26-2.62 13.29z"/><path class="st0" d="M183.11 50.46c1.35 0 2.33 1.72 2.93 5.17.05.51.08 1.01.08 1.5 0 3.5-1.58 6.64-4.74 9.41-1.11.93-2.63 1.77-4.57 2.5-1.39.51-2.96.9-4.72 1.16l-.48.03h-2.97l-1.56-.02s-.95-.09-.92-.09c-1.8-.07-2.99-.18-3.58-.32 0 0-6.5-1.3-11.91-2.64-.71-.11-1.63-.21-1.63-.21s-1.31-.17-1.56-.19c-.6-.09-2.46-.23-2.44-.23-1.73-.07-2.94-.11-2.94-.11h-1.8c-2.79 0-4.47.2-6.1.57-1.79.43-3.72 1.3-4.36 1.3-.71-.39-.19-.4-.19-1.16l-1.78-1.18c0-1.05 6.02-2.08 6.75-2.3 1.19-.37 4.87-.81 4.87-.81l1.5-.06h2.9c.55 0 2.93.21 2.93.21.69.08 2.88.4 3.56.53 0 0 7.34 1.5 9.79 2.19l1.22.21 2.83.4s1.65.26 2.37.31l.75.05h3.52l.6-.05.71-.06 1.05-.11c2.45-.54 4.13-1.12 5.05-1.74 3.29-2.14 4.93-4.72 4.93-7.73v-.32c0-1.02-.38-2.47-1.15-4.35v-.4c.21-.96.57-1.46 1.06-1.46zM93.88 0c2.59 0 5.14.14 7.66.41-36.09 3.82-64.21 34.36-64.21 71.46 0 37.11 28.12 67.64 64.22 71.46-2.52.27-5.07.41-7.66.41-39.69 0-71.87-32.18-71.87-71.87C22.01 32.18 54.19 0 93.88 0z"/></svg>