<svg version="1.1" id="Layer_1" xmlns="http://www.w3.org/2000/svg" x="0" y="0" viewBox="0 0 692.5 279" xml:space="preserve"><style>.st0{fill:#001225}</style><circle class="st0" cx="345.5" cy="61" r="61"/><ellipse class="st0" cx="213.5" cy="87" rx="55" ry="60.7"/><path class="st0" d="M157.5 144c0-33.52-27.04-60.72-60.5-60.99 10.82 15.7 17.5 37.23 17.5 60.99s-6.68 45.29-17.5 60.99c33.46-.27 60.5-27.47 60.5-60.99zm-139-1c-2.2 0-4.36.12-6.5.35 30.63 3.25 54.5 29.16 54.5 60.65S42.63 261.41 12 264.65c2.14.23 4.3.35 6.5.35 33.69 0 61-27.31 61-61s-27.31-61-61-61z"/><ellipse class="st0" cx="478" cy="87" rx="55" ry="60.7"/><path class="st0" d="M534 144c0-33.52 27.04-60.72 60.5-60.99C583.68 98.71 577 120.24 577 144s6.68 45.29 17.5 60.99c-33.46-.27-60.5-27.47-60.5-60.99zm139-1c2.2 0 4.36.12 6.5.35-30.63 3.24-54.5 29.16-54.5 60.65s23.87 57.41 54.5 60.65c-2.14.23-4.3.35-6.5.35-33.69 0-61-27.31-61-61s27.31-61 61-61zM52.55 208h1.15c4.23 0 9.23 1.31 14.99 3.92 16.45 6.09 31.75 9.14 45.91 9.14h3.66c12.57 0 24.91-2.38 37.03-7.15 2.96-1.43 4.58-2.14 4.86-2.14h.31c.92.3 1.38.83 1.38 1.59v.31c0 .89-1.28 1.82-3.84 2.79-2.92 1.55-7.94 3.23-15.04 5.04-8.55 2.11-17.41 3.16-26.58 3.16-17.77 0-36.16-3.98-55.15-11.93-2.89-.82-5.57-1.23-8.04-1.23h-.1c-6.46 0-11.37 2.04-14.73 6.11-.96 1.58-1.44 3.09-1.44 4.52 0 3.73 1.52 6.89 4.57 9.5 1.06.78 2.49 1.54 4.28 2.27.37.47.55 1 .55 1.59-.35.99-.98 1.49-1.91 1.49-4-1.24-7.05-3.68-9.14-7.34-1.24-2.59-1.85-5.14-1.85-7.62 0-4.91 2.94-8.83 8.83-11.78 3.36-1.49 6.8-2.24 10.3-2.24z"/><path class="st0" d="M178.86 170.32h.34c1.04.47 1.57 1.38 1.57 2.74v.1c0 3.71-2.28 11.04-6.84 21.99-1.78 4.32-5.18 10.29-10.21 17.91-.96.97-1.44 1.88-1.44 2.72v.31c0 1.01.68 2.58 2.04 4.7 1.46 1.38 2.97 2.06 4.52 2.06h1.33c1.83-.1 4.49-1.11 7.99-3.03 3.08-2.77 5.24-4.81 6.48-6.14.87-1.06 1.63-1.59 2.27-1.59h.37c.82.38 1.23.93 1.23 1.65-.23 1.24-2.82 3.9-7.78 7.99-3.88 2.8-7.77 4.2-11.67 4.2-5.22 0-8.7-2.88-10.45-8.64-.23-1.03-.37-1.91-.44-2.64 0-4.06.87-8.18 2.61-12.38 0-.66.57-2.19 1.72-4.6 2.4-7.05 4.99-12.93 7.76-17.65 2.05-3.48 3.15-5.22 3.29-5.22.4-.5.91-1.35 1.54-2.53 1.11-1.3 2.37-1.95 3.77-1.95zm-16.77 39.01c.05.09.08.27.08.55l-.08.13h-.26.03c.56-.59 2.06-3.03 4.52-7.31 2.44-4.18 5.21-10.4 8.3-18.67 1.38-4.51 2.06-7.25 2.06-8.23-.07-.61-.1-.78-.1-.52h.55c-.54 0-2.37 3.02-5.48 9.06-2.49 4.72-5.22 11.37-8.2 19.95-.57 1.73-1.04 3.41-1.42 5.04z"/><path class="st0" d="M187.37 211h.18c1.1.23 1.65.79 1.65 1.7v.73c-.89 2.68-1.73 4.39-2.53 5.12-1.1 1.97-1.65 3.74-1.65 5.33 0 .75.55 1.12 1.65 1.12 3.29 0 7.81-2.59 13.55-7.78.17-.44.71-.9 1.62-1.38 1.32-1.25 2.75-2.76 4.28-4.52h1.07c1.03.14 1.54.67 1.54 1.59v.21c0 .57-.85 1.73-2.56 3.47-2.61 3.19-3.92 6-3.92 8.43 0 .75.55 1.12 1.65 1.12 3.29 0 7.81-2.59 13.55-7.78.17-.44.71-.9 1.62-1.38 1.32-1.25 2.75-2.76 4.28-4.52h1.07c1.03.14 1.54.67 1.54 1.59v.21c0 .57-.85 1.72-2.56 3.45-.85 1.1-1.99 2.14-3.42 3.13-6.41 5.87-11.8 8.8-16.19 8.8-3.36 0-5.04-1.58-5.04-4.73 0-.82.06-1.45.18-1.91-4.53 3.66-8.62 5.48-12.27 5.48-3.43 0-5.14-1.58-5.14-4.73 0-1.36.47-3.36 1.41-6.01 2.12-4.37 3.22-6.55 3.29-6.55 0-.08.38-.15 1.15-.19z"/><path class="st0" d="M265.58 211.66h.6c.73.44 1.1.97 1.1 1.59v.18c-.84 3.24-3.06 6.91-6.66 11.02-2.8 2.75-5.03 4.27-6.68 4.57-2.51.85-4.51 1.28-6.01 1.28-4.37 0-7.33-2.1-8.88-6.29-1.53-4.72-2.44-7.3-2.72-7.76-.33-.35-.69-.54-1.07-.57h-.5c-1.55 0-3.16 1.11-4.83 3.32-1.01 1.15-3.66 4.77-7.94 10.86-.64.64-1.19.97-1.65.97h-.21c-.92 0-1.5-.61-1.72-1.83 1.5-6.51 2.99-11.86 4.49-16.06.59-.78 1.21-1.18 1.85-1.18.71.3 1.17.68 1.36 1.15v.86c-.57 1.65-1.24 4.12-1.98 7.39v.71c-.03-.26-.18-.39-.44-.39h-.13c.42-.35 1.78-2.05 4.1-5.09 2.18-2.59 4.47-3.89 6.89-3.89h.42c2.75 0 4.6 1.62 5.54 4.86 1.64 5.4 2.85 8.18 3.66 8.36.97.94 2.3 1.41 3.97 1.41h.1c3.29 0 6.54-1.64 9.74-4.91 3.08-3.64 4.85-6.49 5.3-8.56.71-1.34 1.48-2 2.3-2z"/><path class="st0" d="M275.84 204.4l1.41.05c2.05.02 3.49.92 4.31 2.72.21.47.67 2.44 1.38 5.9 1.31 3.05 3.6 4.57 6.89 4.57 3.15 0 6.63-1.83 10.45-5.48.73-.17 1.27-.26 1.62-.26.82.38 1.23.88 1.23 1.49 0 .89-.84 1.93-2.53 3.13-2.25 1.97-5.14 3.4-8.67 4.31-.77.07-1.36.1-1.78.1h-.42c-4.67 0-8.03-2.12-10.11-6.35l-.21-.13c.05 0-.5 1.05-1.67 3.16-2.63 3.53-5.49 5.3-8.59 5.3h-.1c-2.37 0-4.17-1.32-5.41-3.97-.24-.75-.37-1.42-.37-2.01.1-3.05 1.6-6.1 4.49-9.17 2.32-2.19 5.01-3.31 8.08-3.36zm-9.17 12.01c0 1.76.76 2.86 2.27 3.32h.52c2.47 0 4.99-2.65 7.55-7.96.73-1.78 1.1-2.98 1.1-3.6v-.63c0 .07-.54.08-1.62.03-3.66-.07-6.52 1.75-8.59 5.46-.82 1.17-1.23 2.3-1.23 3.38z"/><path class="st0" d="M314.75 205.1c1.03.17 1.54.75 1.54 1.72-.31.7-1.24 2.18-2.79 4.47-2.32 5.29-3.47 9.25-3.47 11.88.17 2.99 1.07 4.87 2.69 5.61.28.16.52.24.73.24h.42c1.74 0 4.03-1.13 6.87-3.39 2.07-2.05 4.53-5.34 7.39-9.84 1.06-2.38 2.15-3.58 3.26-3.58 1.08.3 1.62.86 1.62 1.7v.31c-.3.97-2.07 3.85-5.33 8.62-1.65 2.73-4.4 5.41-8.25 8.02-1.34.75-3.21 1.27-5.61 1.57h-.16c-2.65 0-4.82-1.65-6.53-4.96-.4-.87-.6-2.18-.6-3.94 0-3.31.85-6.83 2.56-10.58l.68-2.17v-.52c0 .3.15.44.44.44H310c-.78 0-2.27.47-4.47 1.41-.92.35-2.04 1.09-3.34 2.22-1.34-.16-2.14-.77-2.4-1.83l.97-1.57c.37-.42 1.36-.96 2.98-1.62 2.3-.71 5.66-2.12 10.08-4.2h.93zm38.83 1.57c2.87 0 4.81 1.28 5.82 3.84 1.91 3.64 3.54 6.54 4.88 8.7l.34.21c.09 0 .96-.84 2.61-2.53 2.84-2.61 5.86-4.33 9.06-5.17.66-.16 1.32-.27 1.98-.34 1.1.26 1.65.86 1.65 1.8 0 .87-1.72 1.71-5.17 2.51-1.6.49-3.84 2.13-6.71 4.94-.92 1.04-1.38 1.7-1.38 1.96v.31c0 .42.66 1.71 1.98 3.89 0 .38 1.44 3.48 4.33 9.3.84 1.86 1.47 4 1.91 6.4.99 2.98 1.49 6.14 1.49 9.48-.28 6.06-.64 9.83-1.07 11.31-.68 3.48-1.39 5.94-2.14 7.36-1.08 1.86-2.62 4.05-4.62 6.55-2.09 1.22-4.15 1.83-6.19 1.83-3.26 0-6.13-1.32-8.62-3.97-.82-.87-2.25-3.52-4.31-7.94-.87-2.44-1.31-5.09-1.31-7.96 0-1.53.44-4.24 1.31-8.12.21-.28.44-1.49.68-3.63 2.54-7.45 5.33-13.85 8.36-19.19 2.3-3.55 3.45-5.46 3.45-5.72v-.13c-.21-.99-1.29-2.79-3.24-5.38h.47l-1.31 3.47c-1.71 3.55-3.02 5.5-3.94 5.85-1.27.89-2.66 1.33-4.18 1.33h-.52c-2.72 0-4.96-1.46-6.74-4.39-.33-.59-.5-1.33-.5-2.22v-.52c0-4.61 2.18-8.73 6.55-12.35 1.82-.99 3.51-1.48 5.08-1.48zm-8.02 12.98v.21c0 2.09.7 3.54 2.09 4.36.44.28.98.42 1.65.42h.31c2.14 0 3.82-1.94 5.04-5.82.31-.4.64-1.8.99-4.2-.28-3.17-.8-4.75-1.57-4.75 0-.14-.13-.21-.39-.21h-.63c-1.83 0-3.7 1.43-5.61 4.28-1.25 2.16-1.88 4.07-1.88 5.71zm6.16 39.69c0 4.7 1.73 9.44 5.2 14.21 1.5 1.72 3.34 2.59 5.54 2.59 3.86 0 6.72-3.12 8.56-9.35 1.24-3.78 1.85-8.03 1.85-12.77 0-8.44-2.76-17.5-8.28-27.16-.31-.61-.52-.91-.63-.91-.37.07-1.72 2.38-4.07 6.95-2.3 4.77-4.16 9.2-5.59 13.29-1.72 5.77-2.58 10.15-2.58 13.15z"/><path class="st0" d="M391.28 205.1c1.03.17 1.54.75 1.54 1.72-.31.7-1.24 2.18-2.79 4.47-2.32 5.29-3.47 9.25-3.47 11.88.17 2.99 1.07 4.87 2.69 5.61.28.16.52.24.73.24h.42c1.74 0 4.03-1.13 6.87-3.39 2.07-2.05 4.53-5.34 7.39-9.84 1.06-2.38 2.15-3.58 3.26-3.58 1.08.3 1.62.86 1.62 1.7v.31c-.3.97-2.07 3.85-5.33 8.62-1.65 2.73-4.4 5.41-8.25 8.02-1.34.75-3.21 1.27-5.61 1.57h-.16c-2.65 0-4.82-1.65-6.53-4.96-.4-.87-.6-2.18-.6-3.94 0-3.31.85-6.83 2.56-10.58l.68-2.17v-.52c0 .3.15.44.44.44h-.21c-.78 0-2.27.47-4.47 1.41-.92.35-2.04 1.09-3.34 2.22-1.34-.16-2.14-.77-2.4-1.83l.97-1.57c.37-.42 1.36-.96 2.98-1.62 2.3-.71 5.66-2.12 10.08-4.2h.93z"/><path class="st0" d="M412.43 211.13c2.8 0 4.64 1.04 5.51 3.11.31.78.47 1.57.47 2.35 0 .97-.14 2.05-.42 3.21 0 .21.17.31.5.31h1.57c5.45 0 11.45-2.51 18.02-7.52.89-.56 1.64-.84 2.25-.84h.37c.68.35 1.02.85 1.02 1.51-.09.87-1.61 2.26-4.57 4.18-5.99 3.97-12.36 5.95-19.11 5.95-.47-.07-.84-.1-1.1-.1-.35 0-.94.64-1.78 1.93-2.23 2.68-4.7 4.02-7.42 4.02h-.94c-2.37 0-4-1.35-4.91-4.05-.09-.5-.13-1.04-.13-1.62v-.52c0-4.39 2.28-8.1 6.84-11.15 1.51-.51 2.79-.77 3.83-.77zm-7.49 11.99c0 1.51.57 2.52 1.72 3 .19.1.48.16.86.16 1.74 0 3.49-1.23 5.25-3.68l.05-.31c0-.05-.79-.47-2.38-1.25-1.48-.92-2.5-2.32-3.06-4.2l.18.1h-.13c-.5.23-1.27 1.69-2.3 4.39.02.04-.05.64-.19 1.79zm6.06-6.63c0 .84.72 1.65 2.17 2.45.52.3.91.44 1.15.44h.1c.05 0 .22-.88.5-2.64 0-1.55-.61-2.32-1.83-2.32-1.4.14-2.09.83-2.09 2.07z"/><path class="st0" d="M498.92 211.81c1.08.24 1.62.81 1.62 1.7 0 1.08-4.06 3.44-12.19 7.08-5.48 2.12-10.03 3.19-13.63 3.19-6.42 0-10.29-.84-11.59-2.53-.24-.12-.35-.18-.31-.18-.05 0-.4 1.11-1.04 3.34-3.81 8.48-6.32 13-7.52 13.55-1.32 1.62-2.75 2.43-4.28 2.43h-.42c-2.19 0-3.42-2.22-3.68-6.66-.47-5.36-.98-8.9-1.54-10.6-1.44-3.71-2.86-5.92-4.26-6.63-.85-.44-1.46-.95-1.83-1.54v-.65c.35-.68.84-1.02 1.49-1.02h.68c1.88.3 3.75 1.79 5.61 4.49 1.6 3.08 2.4 5.24 2.4 6.48.19.42.61 2.91 1.25 7.47h-.16c.35 3.52.57 5.27.65 5.27h.13c.97-.23 2.41-2.3 4.31-6.21 2.07-3.9 3.73-7.88 4.96-11.93.89-2.45 1.79-3.68 2.72-3.68h.42c1.04 0 1.97 1.15 2.77 3.45.8.91 1.65 1.36 2.56 1.36 1.6.56 3.41.84 5.43.84h.52c3.6 0 8.38-1.3 14.34-3.89 6.11-3.32 9.29-4.99 9.53-4.99.37-.1.73-.14 1.06-.14z"/><path class="st0" d="M509.41 203.46h.47c2.56.35 3.84 1.31 3.84 2.9-.38 2.23-2.4 4.53-6.06 6.89-.85.44-3.55 1.35-8.09 2.74-.1.07-.16.15-.16.24v.1c.73 2.42 1.87 4.07 3.42 4.96 1.57.85 3.41 1.28 5.54 1.28h.94c6.89 0 13.27-2.94 19.11-8.83 1.07-1.05 3.53-2.32 4.33-2.32l-.68.59c.75 0 .28-.11.68.92-.49 1.93-3.46 4.89-8.9 8.88-5.55 2.49-9.84 3.73-12.87 3.73-.33 0-1.26.07-2.79.21-1.51 0-3.86-.58-7.02-1.75-1.9-1.51-3.38-3.16-4.44-4.94-.38 0-.72-1.14-1.02-3.42 0-1.27.99-3.41 2.98-6.42 2.99-2.82 5.39-4.42 7.18-4.8 1.28-.64 2.47-.96 3.54-.96zm-8.95 9.03c0-.03-.11-.05-.34-.05h.1c1.01 0 2.88-.64 5.61-1.91 2.65-1.98 3.97-3.29 3.97-3.92 0-.12-.1-.18-.29-.18h-.24c-3.43.85-6.01 2.34-7.73 4.47-.72.85-1.08 1.38-1.08 1.59z"/><path class="st0" d="M641.44 181.65h.94c4.21 0 7.65 1.51 10.31 4.52 1.91 2.54 2.87 5.47 2.87 8.77v1.36c0 3.73-1.89 7.17-5.67 10.34-2.4 1.79-4.62 3.07-6.66 3.84-8.11 3.38-18.57 5.07-31.36 5.07-8.76 0-18.61-.94-29.56-2.82-5.41-.91-11.44-1.36-18.07-1.36-11.84 0-30.88 2.5-32.99 4.06-2.54 1.88-3.28.83-3.28 0l.58-1.28c1.15-1.38 1.5-1.94 4.64-2.93 10.11-2.3 20.46-3.45 31.05-3.45 7.96 0 16.94.91 26.95 2.72 7.1.97 13.86 1.46 20.26 1.46h.94c16.03 0 27.78-2.67 35.23-8.02 2.96-2.47 4.44-5.19 4.44-8.15 0-4.84-1.71-8.05-5.14-9.64-1.78-.66-3.53-.99-5.27-.99-.31 0-1.77.14-4.36.42-.89 0-1.39-.66-1.51-1.98-.01-1.29 1.88-1.94 5.66-1.94z"/></svg>